<svg xmlns="http://www.w3.org/2000/svg" width="200" height="74" viewBox="0 0 200 74">
  <g id="Logotipo_PECEGE" data-name="Logotipo PECEGE" transform="translate(-53.337 -1389.581)">
    <g id="PECEGE" transform="translate(53.337 1434.909)">
      <path id="Caminho_36" data-name="Caminho 36" d="M73.137,1498.861a10.287,10.287,0,0,0-19.028,0,10.454,10.454,0,0,0-.772,3.972v17.546h2.639v-10.664l-.016-6.13c0-.247-.012-.48-.012-.729a7.7,7.7,0,0,1,1.995-5.2c.09-.1.18-.2.274-.291a7.781,7.781,0,0,1,2.432-1.647,7.639,7.639,0,0,1,5.951,0,7.774,7.774,0,0,1,2.431,1.647c.094.094.184.191.273.289a7.7,7.7,0,0,1-10.59,11.128v3.117q.462.253.955.462a10.25,10.25,0,0,0,7.911,0,10.343,10.343,0,0,0,3.318-2.232,10.341,10.341,0,0,0,3.015-7.3,10.382,10.382,0,0,0-.776-3.972" transform="translate(-53.337 -1492.467)" fill="#90a4ae"/>
      <path id="Caminho_37" data-name="Caminho 37" d="M126.083,1509.431a7.388,7.388,0,0,1-3.92,1.077,7.28,7.28,0,0,1-2.958-.6,7.886,7.886,0,0,1-4.069-4.028,7.187,7.187,0,0,1-.62-2.97h17.933a10.666,10.666,0,0,0-.772-4.009,9.649,9.649,0,0,0-2.243-3.364,10.427,10.427,0,0,0-3.333-2.269,9.964,9.964,0,0,0-3.939-.8,10.109,10.109,0,0,0-3.957.8,9.966,9.966,0,0,0-3.314,2.269,9.8,9.8,0,0,0-2.243,3.327,10.465,10.465,0,0,0-.772,3.972,10.335,10.335,0,0,0,6.329,9.531,10.1,10.1,0,0,0,3.957.794,9.957,9.957,0,0,0,3.939-.794,10.836,10.836,0,0,0,3.333-2.232,10.463,10.463,0,0,0,2.339-3.554h-2.94a7.586,7.586,0,0,1-2.751,2.854m-10.023-11.253a7.721,7.721,0,0,1,1.659-1.624,7.56,7.56,0,0,1,2.071-1.058,7.4,7.4,0,0,1,2.372-.38,7.258,7.258,0,0,1,4.429,1.438,7.885,7.885,0,0,1,2.769,3.708H114.928a7.914,7.914,0,0,1,1.132-2.083" transform="translate(-86.182 -1492.467)" fill="#90a4ae"/>
      <path id="Caminho_38" data-name="Caminho 38" d="M241.607,1509.431a7.387,7.387,0,0,1-3.92,1.077,7.282,7.282,0,0,1-2.959-.6,7.883,7.883,0,0,1-4.068-4.028,7.186,7.186,0,0,1-.62-2.97h17.933a10.666,10.666,0,0,0-.773-4.009,9.642,9.642,0,0,0-2.242-3.364,10.427,10.427,0,0,0-3.333-2.269,9.964,9.964,0,0,0-3.939-.8,10.108,10.108,0,0,0-3.957.8,9.968,9.968,0,0,0-3.315,2.269,9.8,9.8,0,0,0-2.242,3.327,10.456,10.456,0,0,0-.772,3.972,10.335,10.335,0,0,0,6.329,9.531,10.1,10.1,0,0,0,3.957.794,9.957,9.957,0,0,0,3.939-.794,10.836,10.836,0,0,0,3.333-2.232,10.467,10.467,0,0,0,2.339-3.554h-2.94a7.587,7.587,0,0,1-2.751,2.854m-10.023-11.253a7.723,7.723,0,0,1,1.66-1.624,7.548,7.548,0,0,1,2.071-1.058,7.4,7.4,0,0,1,2.372-.38,7.257,7.257,0,0,1,4.428,1.438,7.882,7.882,0,0,1,2.769,3.708H230.452a7.9,7.9,0,0,1,1.132-2.083" transform="translate(-150.998 -1492.467)" fill="#90a4ae"/>
      <path id="Caminho_39" data-name="Caminho 39" d="M358.67,1509.431a7.387,7.387,0,0,1-3.92,1.077,7.282,7.282,0,0,1-2.959-.6,7.884,7.884,0,0,1-4.068-4.028,7.186,7.186,0,0,1-.62-2.97h17.933a10.657,10.657,0,0,0-.773-4.009,9.641,9.641,0,0,0-2.242-3.364,10.427,10.427,0,0,0-3.333-2.269,9.964,9.964,0,0,0-3.939-.8,10.108,10.108,0,0,0-3.957.8,9.968,9.968,0,0,0-3.315,2.269,9.8,9.8,0,0,0-2.242,3.327,10.457,10.457,0,0,0-.772,3.972,10.335,10.335,0,0,0,6.329,9.531,10.1,10.1,0,0,0,3.957.794,9.957,9.957,0,0,0,3.939-.794,10.836,10.836,0,0,0,3.333-2.232,10.468,10.468,0,0,0,2.339-3.554h-2.94a7.587,7.587,0,0,1-2.751,2.854m-10.023-11.253a7.723,7.723,0,0,1,1.66-1.624,7.548,7.548,0,0,1,2.071-1.058,7.4,7.4,0,0,1,2.372-.38,7.257,7.257,0,0,1,4.428,1.438,7.882,7.882,0,0,1,2.769,3.708H347.515a7.9,7.9,0,0,1,1.132-2.083" transform="translate(-216.678 -1492.467)" fill="#90a4ae"/>
      <path id="Caminho_40" data-name="Caminho 40" d="M184.615,1509.8a7.65,7.65,0,0,1-6.893.473,7.709,7.709,0,0,1-2.432-1.646,7.841,7.841,0,0,1-1.641-2.437,7.5,7.5,0,0,1-.6-2.988,7.6,7.6,0,0,1,.6-3.006,7.662,7.662,0,0,1,4.072-4.107,7.655,7.655,0,0,1,6.893.473,7.593,7.593,0,0,1,2.751,2.858h2.94a10.342,10.342,0,0,0-2.339-3.555,10.264,10.264,0,0,0-7.272-3.029,10.073,10.073,0,0,0-3.954.8,10.331,10.331,0,0,0-5.557,5.6,10.389,10.389,0,0,0-.776,3.972,10.284,10.284,0,0,0,.776,3.931,10.173,10.173,0,0,0,2.239,3.368,10.346,10.346,0,0,0,3.318,2.232,10.257,10.257,0,0,0,7.911,0,10.288,10.288,0,0,0,3.315-2.232,10.409,10.409,0,0,0,2.339-3.554h-2.94a7.59,7.59,0,0,1-2.751,2.854" transform="translate(-119.021 -1492.67)" fill="#90a4ae"/>
      <path id="Caminho_41" data-name="Caminho 41" d="M296.219,1513.156a10.1,10.1,0,0,1-3.957-.793,10.333,10.333,0,0,1-3.315-2.232,10.3,10.3,0,0,1-3.014-7.3,10.379,10.379,0,0,1,.772-3.972,10.358,10.358,0,0,1,5.557-5.6l.107-.041c.256-.1.516-.2.78-.283a10.1,10.1,0,0,1,3.07-.474c.137,0,.275.019.412.022.093.008.185.012.274.019.2.011.4.029.605.059s.4.056.6.093c.074.015.144.019.219.034.126.026.245.067.371.1.093.023.185.045.278.071a11.333,11.333,0,0,1,1.459.477,8.546,8.546,0,0,1,1.9,1.077,7.887,7.887,0,0,1,1.493,1.453l.037.048a10.382,10.382,0,0,1,2.1,3.581,10.252,10.252,0,0,1,.531,2.757v8.554a10.366,10.366,0,0,1-.772,3.972,10.542,10.542,0,0,1-5.557,5.578,10.283,10.283,0,0,1-3.957.779,10.166,10.166,0,0,1-7.272-3.026,5.148,5.148,0,0,1-.679-.742l0-.008-.022-.037,2.164-1.5a7.606,7.606,0,0,0,2.119,1.737,7.741,7.741,0,0,0,6.671.324,7.809,7.809,0,0,0,2.431-1.647,7.73,7.73,0,0,0,1.637-2.44,7.414,7.414,0,0,0,.605-2.988v-1.1l.007-6.393c.011-.167.01-.339.01-.509a7.7,7.7,0,0,0-4.931-7.189,7.654,7.654,0,0,0-5.421-.021,7.708,7.708,0,0,0,0,14.421,7.651,7.651,0,0,0,5.414-.021,7.648,7.648,0,0,0,2.026-1.159v3.1c-.253.137-.507.264-.766.375a9.941,9.941,0,0,1-3.994.835" transform="translate(-183.838 -1492.466)" fill="#90a4ae"/>
    </g>
    <g id="Logo" transform="translate(206.815 1389.581)">
      <path id="Caminho_42" data-name="Caminho 42" d="M440.458,1395.626c5.9,5.6,9.568,14.407,9,21.652-.693,8.874-7.7,15.216-17.728,11.315a22.429,22.429,0,0,1-5.789-3.38l1.323-3.873a19.988,19.988,0,0,0,5.483,3.693c8.349,3.7,14.546-1.217,15.287-8.824.62-6.364-2.643-14.209-7.928-19.073-6.3-5.8-15-6.955-18.985-.179l-.048.086h0l-5.722,9.725-9.56,16.247-2.8-6.788,14.625-21.648h0l.02-.031c5.194-7.689,15.6-5.763,22.817,1.078ZM427.474,1410.1l-5.326,13.581-5.938,2.666,11.122-24.838c2.074-4.63,7.468-4.563,11.774-.886,3.812,3.255,6.128,8.826,5.488,13.208-.724,4.957-5.055,7.477-10.225,4.657a14.471,14.471,0,0,1-4.683-4.231l1.163-3.4a11.548,11.548,0,0,0,4.306,4.808c3.757,2.224,7.081.593,7.714-3.092.576-3.352-1.225-7.688-4.212-10.14-3.279-2.693-7.195-2.5-8.571,1.008l-2.613,6.663Zm-4.714-11.854h0l.016-.031c3.428-6.252,11.243-5.451,17.05-.208,4.934,4.456,7.967,11.748,7.324,17.619-.759,6.923-6.507,11.152-14,7.624a18.6,18.6,0,0,1-5.242-3.778l1.2-3.5a16.026,16.026,0,0,0,4.937,4.121c5.966,3.107,10.806.031,11.551-5.622.649-4.922-1.931-11.128-6.156-14.814-4.844-4.228-11.066-4.512-13.57.708-.012.024-.022.049-.034.074h0l-3.953,8.24-9.249,19.28-4.049,1.818-1.333-3.237,15.516-28.292Z" transform="translate(-402.996 -1389.581)" fill="#f20c3a"/>
    </g>
  </g>
</svg>
